screens;
 
http://baypic.net/img-519fb9b71fa6b.html 
 
http://baypic.net/img-519fb9b9ba5a8.html 
 
http://baypic.net/img-519fb9bc4ed52.html 

Format : MPEG-4
Format profile : Base Media
Codec ID : isom
File size : 1.19 GiB
Duration : 20mn 5s
Overall bit rate : 8 473 Kbps
Writing application : Lavf55.3.100

Video
ID : 1
Format : AVC
Format/Info : Advanced Video Codec
Format profile : High@L4.1
Format settings, CABAC : Yes
Format settings, ReFrames : 5 frames
Codec ID : avc1
Codec ID/Info : Advanced Video Coding
Duration : 20mn 5s
Bit rate : 8 000 Kbps
Width : 1 920 pixels
Height : 1 080 pixels
Display aspect ratio : 16:9
Frame rate mode : Constant
Frame rate : 29.970 fps
Color space : YUV
Chroma subsampling : 4:2:0
Bit depth : 8 bits
Scan type : Progressive
Bits/(Pixel*Frame) : 0.129
Stream size : 1.12 GiB (94%)
Tagged date : UTC 2013-05-09 07:19:00

Audio
ID : 2
Format : AAC
Format/Info : Advanced Audio Codec
Format profile : LC
Codec ID : 40
Duration : 20mn 5s
Duration_LastFrame : -7ms
Bit rate mode : Constant
Bit rate : 128 Kbps
Channel(s) : 2 channels
Channel positions : Front: L R
Sampling rate : 48.0 KHz
Compression mode : Lossy
Stream size : 18.4 MiB (2%)